<svg width="1320" height="304" viewBox="0 0 1320 304" fill="none" xmlns="http://www.w3.org/2000/svg">
<rect width="1320" height="304" rx="0" fill="black"/>
<path d="M437.08 196C436.141 196 435.416 195.744 434.904 195.232C434.392 194.635 434.136 193.909 434.136 193.056V109.472C434.136 108.533 434.392 107.808 434.904 107.296C435.416 106.699 436.141 106.4 437.08 106.4H466.136C474.925 106.4 482.008 107.723 487.384 110.368C492.76 113.013 496.685 116.939 499.16 122.144C501.635 127.264 502.915 133.579 503 141.088C503.085 144.928 503.128 148.299 503.128 151.2C503.128 154.101 503.085 157.429 503 161.184C502.829 169.035 501.507 175.563 499.032 180.768C496.643 185.888 492.803 189.728 487.512 192.288C482.307 194.763 475.395 196 466.776 196H437.08ZM446.68 185.12H466.136C472.024 185.12 476.717 184.309 480.216 182.688C483.715 181.067 486.232 178.464 487.768 174.88C489.389 171.296 490.243 166.56 490.328 160.672C490.499 158.112 490.584 155.893 490.584 154.016C490.584 152.053 490.584 150.133 490.584 148.256C490.584 146.293 490.499 144.075 490.328 141.6C490.157 133.323 488.195 127.221 484.44 123.296C480.685 119.285 474.371 117.28 465.496 117.28H446.68V185.12ZM547.218 197.28C538.429 197.28 531.431 194.592 526.226 189.216C521.021 183.755 518.162 176.331 517.65 166.944C517.565 165.835 517.522 164.427 517.522 162.72C517.522 160.928 517.565 159.477 517.65 158.368C517.991 152.309 519.399 147.019 521.874 142.496C524.349 137.888 527.719 134.347 531.986 131.872C536.338 129.397 541.415 128.16 547.218 128.16C553.703 128.16 559.122 129.525 563.474 132.256C567.911 134.987 571.282 138.869 573.586 143.904C575.89 148.939 577.042 154.827 577.042 161.568V163.744C577.042 164.683 576.743 165.408 576.146 165.92C575.634 166.432 574.951 166.688 574.098 166.688H529.81C529.81 166.773 529.81 166.944 529.81 167.2C529.81 167.456 529.81 167.669 529.81 167.84C529.981 171.339 530.749 174.624 532.114 177.696C533.479 180.683 535.442 183.115 538.002 184.992C540.562 186.869 543.634 187.808 547.218 187.808C550.29 187.808 552.85 187.339 554.898 186.4C556.946 185.461 558.61 184.437 559.89 183.328C561.17 182.133 562.023 181.237 562.45 180.64C563.218 179.531 563.815 178.891 564.242 178.72C564.669 178.464 565.351 178.336 566.29 178.336H572.434C573.287 178.336 573.97 178.592 574.482 179.104C575.079 179.531 575.335 180.171 575.25 181.024C575.165 182.304 574.482 183.883 573.202 185.76C571.922 187.552 570.087 189.344 567.698 191.136C565.309 192.928 562.407 194.421 558.994 195.616C555.581 196.725 551.655 197.28 547.218 197.28ZM529.81 157.856H564.882V157.472C564.882 153.632 564.157 150.219 562.706 147.232C561.341 144.245 559.335 141.899 556.69 140.192C554.045 138.4 550.887 137.504 547.218 137.504C543.549 137.504 540.391 138.4 537.746 140.192C535.186 141.899 533.223 144.245 531.858 147.232C530.493 150.219 529.81 153.632 529.81 157.472V157.856ZM595.419 220.32C594.566 220.32 593.84 220.021 593.243 219.424C592.731 218.912 592.475 218.229 592.475 217.376V132.384C592.475 131.531 592.731 130.848 593.243 130.336C593.84 129.739 594.566 129.44 595.419 129.44H601.307C602.16 129.44 602.843 129.739 603.355 130.336C603.952 130.848 604.251 131.531 604.251 132.384V138.016C606.299 135.2 609.03 132.853 612.443 130.976C615.856 129.099 620.123 128.16 625.243 128.16C630.022 128.16 634.075 128.971 637.403 130.592C640.816 132.213 643.59 134.432 645.723 137.248C647.942 140.064 649.606 143.264 650.715 146.848C651.824 150.432 652.422 154.272 652.507 158.368C652.592 159.733 652.635 161.184 652.635 162.72C652.635 164.256 652.592 165.707 652.507 167.072C652.422 171.083 651.824 174.923 650.715 178.592C649.606 182.176 647.942 185.376 645.723 188.192C643.59 190.923 640.816 193.141 637.403 194.848C634.075 196.469 630.022 197.28 625.243 197.28C620.294 197.28 616.112 196.384 612.699 194.592C609.371 192.715 606.64 190.411 604.507 187.68V217.376C604.507 218.229 604.251 218.912 603.739 219.424C603.227 220.021 602.502 220.32 601.563 220.32H595.419ZM622.555 186.912C626.992 186.912 630.448 185.973 632.923 184.096C635.483 182.133 637.318 179.616 638.427 176.544C639.536 173.387 640.176 170.016 640.347 166.432C640.432 163.957 640.432 161.483 640.347 159.008C640.176 155.424 639.536 152.096 638.427 149.024C637.318 145.867 635.483 143.349 632.923 141.472C630.448 139.509 626.992 138.528 622.555 138.528C618.374 138.528 614.96 139.509 612.315 141.472C609.755 143.435 607.835 145.952 606.555 149.024C605.36 152.011 604.678 155.083 604.507 158.24C604.422 159.605 604.379 161.227 604.379 163.104C604.379 164.981 604.422 166.645 604.507 168.096C604.592 171.083 605.275 174.027 606.555 176.928C607.92 179.829 609.926 182.219 612.571 184.096C615.216 185.973 618.544 186.912 622.555 186.912ZM693.831 196C689.052 196 685.17 195.104 682.183 193.312C679.196 191.435 677.02 188.832 675.655 185.504C674.29 182.091 673.607 178.08 673.607 173.472V139.68H663.623C662.77 139.68 662.044 139.424 661.447 138.912C660.935 138.315 660.679 137.589 660.679 136.736V132.384C660.679 131.531 660.935 130.848 661.447 130.336C662.044 129.739 662.77 129.44 663.623 129.44H673.607V108.064C673.607 107.211 673.863 106.528 674.375 106.016C674.972 105.419 675.698 105.12 676.551 105.12H682.567C683.42 105.12 684.103 105.419 684.615 106.016C685.212 106.528 685.511 107.211 685.511 108.064V129.44H701.383C702.236 129.44 702.919 129.739 703.431 130.336C704.028 130.848 704.327 131.531 704.327 132.384V136.736C704.327 137.589 704.028 138.315 703.431 138.912C702.919 139.424 702.236 139.68 701.383 139.68H685.511V172.576C685.511 176.587 686.194 179.744 687.559 182.048C688.924 184.352 691.356 185.504 694.855 185.504H702.663C703.516 185.504 704.199 185.803 704.711 186.4C705.308 186.912 705.607 187.595 705.607 188.448V193.056C705.607 193.909 705.308 194.635 704.711 195.232C704.199 195.744 703.516 196 702.663 196H693.831ZM720.919 196C720.066 196 719.34 195.744 718.743 195.232C718.231 194.635 717.975 193.909 717.975 193.056V108.064C717.975 107.211 718.231 106.528 718.743 106.016C719.34 105.419 720.066 105.12 720.919 105.12H727.319C728.258 105.12 728.983 105.419 729.495 106.016C730.007 106.528 730.263 107.211 730.263 108.064V137.888C732.567 134.987 735.383 132.64 738.711 130.848C742.039 129.056 746.263 128.16 751.383 128.16C756.93 128.16 761.623 129.397 765.463 131.872C769.388 134.261 772.332 137.632 774.295 141.984C776.343 146.251 777.367 151.243 777.367 156.96V193.056C777.367 193.909 777.111 194.635 776.599 195.232C776.087 195.744 775.362 196 774.423 196H768.023C767.17 196 766.444 195.744 765.847 195.232C765.335 194.635 765.079 193.909 765.079 193.056V157.6C765.079 151.627 763.628 146.976 760.727 143.648C757.826 140.235 753.559 138.528 747.927 138.528C742.636 138.528 738.37 140.235 735.127 143.648C731.884 146.976 730.263 151.627 730.263 157.6V193.056C730.263 193.909 730.007 194.635 729.495 195.232C728.983 195.744 728.258 196 727.319 196H720.919ZM828.743 197.28C823.623 197.28 819.356 196.384 815.943 194.592C812.53 192.715 809.799 190.411 807.751 187.68V193.056C807.751 193.909 807.452 194.635 806.855 195.232C806.343 195.744 805.66 196 804.807 196H798.919C798.066 196 797.34 195.744 796.743 195.232C796.231 194.635 795.975 193.909 795.975 193.056V108.064C795.975 107.211 796.231 106.528 796.743 106.016C797.34 105.419 798.066 105.12 798.919 105.12H805.063C806.002 105.12 806.727 105.419 807.239 106.016C807.751 106.528 808.007 107.211 808.007 108.064V137.504C810.14 134.859 812.871 132.64 816.199 130.848C819.612 129.056 823.794 128.16 828.743 128.16C833.522 128.16 837.575 129.013 840.903 130.72C844.316 132.341 847.09 134.603 849.223 137.504C851.442 140.405 853.106 143.691 854.215 147.36C855.324 151.029 855.922 154.869 856.007 158.88C856.092 160.245 856.135 161.525 856.135 162.72C856.135 163.915 856.092 165.195 856.007 166.56C855.922 170.656 855.324 174.539 854.215 178.208C853.106 181.877 851.442 185.163 849.223 188.064C847.09 190.88 844.316 193.141 840.903 194.848C837.575 196.469 833.522 197.28 828.743 197.28ZM826.055 186.912C830.492 186.912 833.948 185.973 836.423 184.096C838.983 182.133 840.818 179.616 841.927 176.544C843.036 173.387 843.676 170.016 843.847 166.432C843.932 163.957 843.932 161.483 843.847 159.008C843.676 155.424 843.036 152.096 841.927 149.024C840.818 145.867 838.983 143.349 836.423 141.472C833.948 139.509 830.492 138.528 826.055 138.528C822.044 138.528 818.716 139.467 816.071 141.344C813.426 143.221 811.42 145.611 810.055 148.512C808.775 151.413 808.092 154.357 808.007 157.344C807.922 158.709 807.879 160.373 807.879 162.336C807.879 164.213 807.922 165.835 808.007 167.2C808.178 170.357 808.86 173.472 810.055 176.544C811.335 179.531 813.255 182.005 815.815 183.968C818.46 185.931 821.874 186.912 826.055 186.912ZM899.236 197.28C892.751 197.28 887.332 196.043 882.98 193.568C878.628 191.093 875.3 187.68 872.996 183.328C870.692 178.891 869.412 173.856 869.156 168.224C869.071 166.773 869.028 164.939 869.028 162.72C869.028 160.416 869.071 158.581 869.156 157.216C869.412 151.499 870.692 146.464 872.996 142.112C875.385 137.76 878.756 134.347 883.108 131.872C887.46 129.397 892.836 128.16 899.236 128.16C905.636 128.16 911.012 129.397 915.364 131.872C919.716 134.347 923.044 137.76 925.348 142.112C927.737 146.464 929.06 151.499 929.316 157.216C929.401 158.581 929.444 160.416 929.444 162.72C929.444 164.939 929.401 166.773 929.316 168.224C929.06 173.856 927.78 178.891 925.476 183.328C923.172 187.68 919.844 191.093 915.492 193.568C911.14 196.043 905.721 197.28 899.236 197.28ZM899.236 187.424C904.527 187.424 908.751 185.76 911.908 182.432C915.065 179.019 916.772 174.069 917.028 167.584C917.113 166.304 917.156 164.683 917.156 162.72C917.156 160.757 917.113 159.136 917.028 157.856C916.772 151.371 915.065 146.464 911.908 143.136C908.751 139.723 904.527 138.016 899.236 138.016C893.945 138.016 889.679 139.723 886.436 143.136C883.279 146.464 881.615 151.371 881.444 157.856C881.359 159.136 881.316 160.757 881.316 162.72C881.316 164.683 881.359 166.304 881.444 167.584C881.615 174.069 883.279 179.019 886.436 182.432C889.679 185.76 893.945 187.424 899.236 187.424ZM972.736 197.28C966.251 197.28 960.832 196.043 956.48 193.568C952.128 191.093 948.8 187.68 946.496 183.328C944.192 178.891 942.912 173.856 942.656 168.224C942.571 166.773 942.528 164.939 942.528 162.72C942.528 160.416 942.571 158.581 942.656 157.216C942.912 151.499 944.192 146.464 946.496 142.112C948.885 137.76 952.256 134.347 956.608 131.872C960.96 129.397 966.336 128.16 972.736 128.16C979.136 128.16 984.512 129.397 988.864 131.872C993.216 134.347 996.544 137.76 998.848 142.112C1001.24 146.464 1002.56 151.499 1002.82 157.216C1002.9 158.581 1002.94 160.416 1002.94 162.72C1002.94 164.939 1002.9 166.773 1002.82 168.224C1002.56 173.856 1001.28 178.891 998.976 183.328C996.672 187.68 993.344 191.093 988.992 193.568C984.64 196.043 979.221 197.28 972.736 197.28ZM972.736 187.424C978.027 187.424 982.251 185.76 985.408 182.432C988.565 179.019 990.272 174.069 990.528 167.584C990.613 166.304 990.656 164.683 990.656 162.72C990.656 160.757 990.613 159.136 990.528 157.856C990.272 151.371 988.565 146.464 985.408 143.136C982.251 139.723 978.027 138.016 972.736 138.016C967.445 138.016 963.179 139.723 959.936 143.136C956.779 146.464 955.115 151.371 954.944 157.856C954.859 159.136 954.816 160.757 954.816 162.72C954.816 164.683 954.859 166.304 954.944 167.584C955.115 174.069 956.779 179.019 959.936 182.432C963.179 185.76 967.445 187.424 972.736 187.424ZM1044.33 196C1039.55 196 1035.67 195.104 1032.68 193.312C1029.7 191.435 1027.52 188.832 1026.16 185.504C1024.79 182.091 1024.11 178.08 1024.11 173.472V139.68H1014.12C1013.27 139.68 1012.54 139.424 1011.95 138.912C1011.44 138.315 1011.18 137.589 1011.18 136.736V132.384C1011.18 131.531 1011.44 130.848 1011.95 130.336C1012.54 129.739 1013.27 129.44 1014.12 129.44H1024.11V108.064C1024.11 107.211 1024.36 106.528 1024.88 106.016C1025.47 105.419 1026.2 105.12 1027.05 105.12H1033.07C1033.92 105.12 1034.6 105.419 1035.12 106.016C1035.71 106.528 1036.01 107.211 1036.01 108.064V129.44H1051.88C1052.74 129.44 1053.42 129.739 1053.93 130.336C1054.53 130.848 1054.83 131.531 1054.83 132.384V136.736C1054.83 137.589 1054.53 138.315 1053.93 138.912C1053.42 139.424 1052.74 139.68 1051.88 139.68H1036.01V172.576C1036.01 176.587 1036.69 179.744 1038.06 182.048C1039.42 184.352 1041.86 185.504 1045.36 185.504H1053.16C1054.02 185.504 1054.7 185.803 1055.21 186.4C1055.81 186.912 1056.11 187.595 1056.11 188.448V193.056C1056.11 193.909 1055.81 194.635 1055.21 195.232C1054.7 195.744 1054.02 196 1053.16 196H1044.33Z" fill="white"/>
<path d="M341.764 202C340.14 202 338.865 201.491 337.937 200.472C337.009 199.454 336.545 198.054 336.545 196.272C336.545 194.49 337.009 193.089 337.937 192.071C338.865 191.053 340.14 190.543 341.764 190.543H397.433C399.057 190.543 400.391 191.053 401.434 192.071C402.478 193.089 403 194.49 403 196.272C403 198.054 402.478 199.454 401.434 200.472C400.391 201.491 399.057 202 397.433 202H341.764ZM261.74 193.98C260.58 192.962 260 191.625 260 189.97C260 188.316 260.58 186.979 261.74 185.961L294.097 150.445L261.392 114.547C260.696 113.783 260.29 112.574 260.174 110.919C260.058 109.264 260.58 107.801 261.74 106.528C262.436 105.509 263.595 105 265.219 105C266.843 105 268.118 105.509 269.046 106.528L302.1 143.189C303.028 144.207 303.723 145.289 304.187 146.435C304.651 147.581 304.883 148.917 304.883 150.445C304.883 151.972 304.651 153.245 304.187 154.264C303.723 155.282 303.028 156.428 302.1 157.701L269.046 193.98C268.118 195.253 266.901 195.826 265.393 195.699C263.885 195.572 262.667 194.999 261.74 193.98Z" fill="white"/>
</svg>
