<svg width="512" height="512" viewBox="0 0 512 512" fill="none" xmlns="http://www.w3.org/2000/svg">
    <g clip-path="url(#clip0_304_2)">
        <rect width="512" height="512" rx="0" fill="black"/>
        <g filter="url(#filter1_d_304_2)">
            <path d="M102.699 352.827C102.059 352.827 101.547 352.635 101.163 352.251C100.779 351.867 100.587 351.355 100.587 350.715V287.835C100.587 287.131 100.779 286.587 101.163 286.203C101.547 285.819 102.059 285.627 102.699 285.627H140.139C140.843 285.627 141.387 285.819 141.771 286.203C142.155 286.587 142.347 287.131 142.347 287.835V289.275C142.347 289.915 142.155 290.427 141.771 290.811C141.387 291.195 140.843 291.387 140.139 291.387H106.635V315.867H138.027C138.731 315.867 139.275 316.059 139.659 316.443C140.043 316.827 140.235 317.371 140.235 318.075V319.515C140.235 320.155 140.043 320.667 139.659 321.051C139.275 321.435 138.731 321.627 138.027 321.627H106.635V347.067H140.906C141.611 347.067 142.155 347.259 142.539 347.643C142.923 348.027 143.115 348.571 143.115 349.275V350.715C143.115 351.355 142.923 351.867 142.539 352.251C142.155 352.635 141.611 352.827 140.906 352.827H102.699ZM174.215 353.787C169.863 353.787 166.247 352.859 163.367 351.003C160.551 349.083 158.439 346.491 157.031 343.227C155.687 339.963 155.015 336.315 155.015 332.283V305.019C155.015 304.379 155.207 303.867 155.591 303.483C155.975 303.099 156.487 302.907 157.127 302.907H158.759C159.399 302.907 159.911 303.099 160.295 303.483C160.679 303.867 160.871 304.379 160.871 305.019V331.803C160.871 342.747 165.639 348.219 175.175 348.219C179.719 348.219 183.367 346.779 186.119 343.899C188.871 340.955 190.247 336.923 190.247 331.803V305.019C190.247 304.379 190.439 303.867 190.823 303.483C191.207 303.099 191.719 302.907 192.359 302.907H193.991C194.631 302.907 195.143 303.099 195.527 303.483C195.911 303.867 196.103 304.379 196.103 305.019V350.715C196.103 351.355 195.911 351.867 195.527 352.251C195.143 352.635 194.631 352.827 193.991 352.827H192.359C191.719 352.827 191.207 352.635 190.823 352.251C190.439 351.867 190.247 351.355 190.247 350.715V346.203C188.519 348.443 186.439 350.267 184.007 351.675C181.639 353.083 178.375 353.787 174.215 353.787ZM213.859 371.067C213.219 371.067 212.707 370.875 212.323 370.491C211.939 370.107 211.747 369.595 211.747 368.955V305.019C211.747 304.379 211.939 303.867 212.323 303.483C212.707 303.099 213.219 302.907 213.859 302.907H215.491C216.131 302.907 216.643 303.099 217.027 303.483C217.411 303.867 217.603 304.379 217.603 305.019V309.531C219.203 307.355 221.283 305.563 223.843 304.155C226.467 302.683 229.763 301.947 233.731 301.947C237.507 301.947 240.675 302.619 243.235 303.963C245.795 305.243 247.875 306.971 249.475 309.147C251.075 311.323 252.259 313.755 253.027 316.443C253.795 319.131 254.211 321.883 254.275 324.699C254.339 325.659 254.371 326.715 254.371 327.867C254.371 329.019 254.339 330.075 254.275 331.035C254.211 333.851 253.795 336.603 253.027 339.291C252.259 341.979 251.075 344.411 249.475 346.587C247.875 348.763 245.795 350.523 243.235 351.867C240.675 353.147 237.507 353.787 233.731 353.787C229.763 353.787 226.467 353.051 223.843 351.579C221.283 350.107 219.203 348.315 217.603 346.203V368.955C217.603 369.595 217.411 370.107 217.027 370.491C216.643 370.875 216.131 371.067 215.491 371.067H213.859ZM233.155 348.219C236.931 348.219 239.907 347.387 242.083 345.723C244.259 344.059 245.827 341.883 246.787 339.195C247.747 336.507 248.291 333.627 248.419 330.555C248.483 328.763 248.483 326.971 248.419 325.179C248.291 322.107 247.747 319.227 246.787 316.539C245.827 313.851 244.259 311.675 242.083 310.011C239.907 308.347 236.931 307.515 233.155 307.515C229.507 307.515 226.563 308.379 224.323 310.107C222.083 311.835 220.419 314.011 219.331 316.635C218.307 319.195 217.731 321.787 217.603 324.411C217.539 325.371 217.507 326.619 217.507 328.155C217.507 329.691 217.539 330.939 217.603 331.899C217.667 334.459 218.243 336.987 219.331 339.483C220.483 341.979 222.179 344.059 224.419 345.723C226.723 347.387 229.635 348.219 233.155 348.219ZM269.544 352.827C268.904 352.827 268.392 352.635 268.008 352.251C267.624 351.867 267.432 351.355 267.432 350.715V305.019C267.432 304.379 267.624 303.867 268.008 303.483C268.392 303.099 268.904 302.907 269.544 302.907H271.176C271.816 302.907 272.328 303.099 272.712 303.483C273.096 303.867 273.288 304.379 273.288 305.019V309.531C275.016 307.291 277.096 305.467 279.528 304.059C282.024 302.651 285.32 301.947 289.416 301.947C293.768 301.947 297.384 302.907 300.264 304.827C303.208 306.683 305.384 309.243 306.792 312.507C308.264 315.707 309 319.355 309 323.451V350.715C309 351.355 308.808 351.867 308.424 352.251C308.04 352.635 307.528 352.827 306.888 352.827H305.256C304.616 352.827 304.104 352.635 303.72 352.251C303.336 351.867 303.144 351.355 303.144 350.715V323.931C303.144 318.811 301.896 314.811 299.4 311.931C296.904 308.987 293.256 307.515 288.456 307.515C283.912 307.515 280.232 308.987 277.416 311.931C274.664 314.811 273.288 318.811 273.288 323.931V350.715C273.288 351.355 273.096 351.867 272.712 352.251C272.328 352.635 271.816 352.827 271.176 352.827H269.544ZM342.585 353.787C336.377 353.787 331.449 351.771 327.801 347.739C324.153 343.643 322.073 338.299 321.561 331.707C321.497 330.747 321.465 329.467 321.465 327.867C321.465 326.267 321.497 324.987 321.561 324.027C321.881 319.675 322.905 315.835 324.633 312.507C326.361 309.179 328.729 306.587 331.737 304.731C334.809 302.875 338.425 301.947 342.585 301.947C347.065 301.947 350.873 302.939 354.009 304.923C357.145 306.907 359.545 309.755 361.209 313.467C362.937 317.179 363.801 321.595 363.801 326.715V328.155C363.801 328.795 363.577 329.307 363.129 329.691C362.745 330.075 362.233 330.267 361.593 330.267H327.417C327.417 330.267 327.417 330.395 327.417 330.651C327.417 330.907 327.417 331.099 327.417 331.227C327.545 334.107 328.217 336.859 329.433 339.483C330.649 342.043 332.377 344.155 334.617 345.819C336.857 347.419 339.513 348.219 342.585 348.219C345.337 348.219 347.609 347.803 349.401 346.971C351.257 346.139 352.729 345.243 353.817 344.283C354.905 343.259 355.609 342.491 355.929 341.979C356.505 341.147 356.953 340.667 357.273 340.539C357.593 340.347 358.105 340.251 358.809 340.251H360.345C360.921 340.251 361.401 340.443 361.785 340.827C362.233 341.147 362.425 341.595 362.361 342.171C362.297 343.067 361.785 344.187 360.825 345.531C359.929 346.811 358.617 348.091 356.889 349.371C355.225 350.651 353.177 351.707 350.745 352.539C348.313 353.371 345.593 353.787 342.585 353.787ZM327.417 324.891H357.945V324.507C357.945 321.307 357.337 318.427 356.121 315.867C354.905 313.307 353.145 311.291 350.841 309.819C348.537 308.283 345.785 307.515 342.585 307.515C339.385 307.515 336.633 308.283 334.329 309.819C332.089 311.291 330.361 313.307 329.145 315.867C327.993 318.427 327.417 321.307 327.417 324.507V324.891ZM389.904 353.787C386.832 353.787 383.984 353.147 381.359 351.867C378.8 350.587 376.72 348.891 375.12 346.779C373.52 344.603 372.72 342.171 372.72 339.483C372.72 335.131 374.48 331.643 378 329.019C381.52 326.395 386.096 324.699 391.728 323.931L406.896 321.819V318.459C406.896 315.067 405.84 312.411 403.728 310.491C401.68 308.507 398.384 307.515 393.84 307.515C390.512 307.515 387.824 308.187 385.776 309.531C383.728 310.811 382.32 312.507 381.552 314.619C381.232 315.579 380.624 316.059 379.728 316.059H378.192C377.424 316.059 376.88 315.867 376.56 315.483C376.24 315.035 376.08 314.523 376.08 313.947C376.08 313.051 376.4 311.931 377.04 310.587C377.744 309.243 378.8 307.931 380.208 306.651C381.616 305.307 383.44 304.187 385.68 303.291C387.92 302.395 390.64 301.947 393.84 301.947C397.616 301.947 400.72 302.459 403.152 303.483C405.648 304.507 407.568 305.851 408.912 307.515C410.32 309.115 411.312 310.907 411.888 312.891C412.464 314.875 412.752 316.827 412.752 318.747V350.715C412.752 351.355 412.56 351.867 412.176 352.251C411.792 352.635 411.28 352.827 410.64 352.827H409.008C408.368 352.827 407.856 352.635 407.472 352.251C407.088 351.867 406.896 351.355 406.896 350.715V346.203C406.128 347.355 405.04 348.507 403.632 349.659C402.224 350.811 400.4 351.803 398.16 352.635C395.984 353.403 393.232 353.787 389.904 353.787ZM390.864 348.219C393.808 348.219 396.496 347.579 398.928 346.299C401.36 345.019 403.28 343.067 404.688 340.443C406.16 337.755 406.896 334.395 406.896 330.363V327.099L394.512 328.827C389.264 329.531 385.296 330.747 382.608 332.475C379.92 334.203 378.576 336.379 378.576 339.003C378.576 341.115 379.184 342.843 380.4 344.187C381.616 345.531 383.152 346.555 385.008 347.259C386.928 347.899 388.88 348.219 390.864 348.219Z"
                  fill="url(#paint0_linear_304_2)"/>
            <path d="M267.355 234.546C265.203 234.546 263.513 233.871 262.283 232.522C261.054 231.172 260.439 229.316 260.439 226.955C260.439 224.593 261.054 222.737 262.283 221.388C263.513 220.038 265.203 219.363 267.355 219.363H341.129C343.28 219.363 345.048 220.038 346.431 221.388C347.814 222.737 348.506 224.593 348.506 226.955C348.506 229.316 347.814 231.172 346.431 232.522C345.048 233.871 343.28 234.546 341.129 234.546H267.355ZM161.305 223.918C159.768 222.569 159 220.797 159 218.604C159 216.411 159.768 214.64 161.305 213.29L198.664 172.286C201.794 168.851 201.794 163.598 198.664 160.163L160.844 118.652C159.922 117.64 159.384 116.037 159.231 113.844C159.077 111.651 159.768 109.711 161.305 108.024C162.228 106.675 163.765 106 165.916 106C168.068 106 169.759 106.675 170.988 108.024L214.791 156.609C216.021 157.958 216.943 159.392 217.558 160.91C218.173 162.429 218.48 164.2 218.48 166.224C218.48 168.249 218.173 169.936 217.558 171.285C216.943 172.635 216.021 174.153 214.791 175.84L170.988 223.918C169.759 225.605 168.145 226.364 166.147 226.196C164.149 226.027 162.535 225.268 161.305 223.918Z"
                  fill="white"/>
            <path d="M267.689 191.428C263.341 187.034 259.989 181.884 257.634 175.979C255.279 170.075 254.101 164.147 254.101 158.197C254.101 151.239 255.347 144.808 257.838 138.903C260.329 132.998 263.929 127.666 268.64 122.906C272.625 118.786 277.562 115.536 283.45 113.156C289.337 110.776 295.837 109.013 302.947 107.869C310.058 106.725 317.689 106.107 325.842 106.015C333.2 105.933 340.669 106.186 348.249 106.774C349.677 106.885 350.82 108.003 350.959 109.429C351.692 116.925 352.038 124.347 351.997 131.694C351.951 139.842 351.431 147.554 350.434 154.832C349.438 162.11 347.717 168.816 345.271 174.95C342.825 181.083 339.519 186.256 335.353 190.467C330.642 195.319 325.434 199.003 319.727 201.521C314.021 204.038 307.997 205.297 301.656 205.297C294.772 205.297 288.59 204.221 283.11 202.07C277.63 199.919 272.489 196.371 267.689 191.428ZM284.938 186.078C284.602 187.305 285.102 188.618 286.223 189.22C288.109 190.234 290.174 191.016 292.417 191.565C295.406 192.298 298.486 192.664 301.656 192.664C306.095 192.664 310.511 191.68 314.904 189.711C319.297 187.743 323.26 184.974 326.793 181.404C329.601 178.291 331.933 174.286 333.79 169.388C335.647 164.49 336.96 159.181 337.73 153.459C338.5 147.737 338.953 141.856 339.089 135.814C339.202 130.789 339.174 125.986 339.005 121.405C338.948 119.846 337.686 118.607 336.127 118.569C328.982 118.394 322.496 118.489 316.67 118.855C310.103 119.267 304.306 120.022 299.279 121.12C294.251 122.219 289.971 123.661 286.439 125.446C282.906 127.231 280.098 129.222 278.015 131.419C274.392 134.99 271.561 138.949 269.523 143.297C267.485 147.646 266.466 151.971 266.466 156.274C266.466 160.211 267.304 164.513 268.979 169.182C270.061 172.196 271.341 174.808 272.818 177.021C273.962 178.734 276.418 178.4 277.438 176.61C281.404 169.646 286.125 163.279 291.602 157.51C292.158 156.924 292.721 156.346 293.29 155.777C295.804 153.262 298.903 156.726 296.936 159.687C296.267 160.693 295.621 161.707 294.999 162.728C290.562 170.003 287.209 177.787 284.938 186.078Z"
                  fill="white"/>
        </g>
    </g>
    <defs>
        <filter id="filter0_f_304_2" x="-34" y="-3" width="579" height="518" filterUnits="userSpaceOnUse"
                color-interpolation-filters="sRGB">
            <feFlood flood-opacity="0" result="BackgroundImageFix"/>
            <feBlend mode="normal" in="SourceGraphic" in2="BackgroundImageFix" result="shape"/>
            <feGaussianBlur stdDeviation="64" result="effect1_foregroundBlur_304_2"/>
        </filter>
        <filter id="filter1_d_304_2" x="84.5865" y="90" width="344.165" height="297.067" filterUnits="userSpaceOnUse"
                color-interpolation-filters="sRGB">
            <feFlood flood-opacity="0" result="BackgroundImageFix"/>
            <feColorMatrix in="SourceAlpha" type="matrix" values="0 0 0 0 0 0 0 0 0 0 0 0 0 0 0 0 0 0 127 0"
                           result="hardAlpha"/>
            <feOffset/>
            <feGaussianBlur stdDeviation="8"/>
            <feComposite in2="hardAlpha" operator="out"/>
            <feColorMatrix type="matrix" values="0 0 0 0 0 0 0 0 0 0 0 0 0 0 0 0 0 0 0.25 0"/>
            <feBlend mode="normal" in2="BackgroundImageFix" result="effect1_dropShadow_304_2"/>
            <feBlend mode="normal" in="SourceGraphic" in2="effect1_dropShadow_304_2" result="shape"/>
        </filter>
        <linearGradient id="paint0_linear_304_2" x1="10" y1="320.019" x2="501.719" y2="320.019"
                        gradientUnits="userSpaceOnUse">
            <stop stop-color="#40D986"/>
            <stop offset="1" stop-color="#0079E9"/>
        </linearGradient>
        <clipPath id="clip0_304_2">
            <rect width="512" height="512" rx="0" fill="white"/>
        </clipPath>
    </defs>
</svg>